# xmcd CD database file
#
# Track frame offsets:
#	183
#	2120
#	10583
#	24610
#	35428
#	44998
#	62820
#	75375
#	86428
#	102455
#	112383
#	125503
#	133093
#
# Disc length: 1922 seconds
#
# Revision: 0
# Processed by: cddbd v1.4PL0 Copyright (c) Steve Scherf et al.
# Submitted via: CDex 1.50beta9
#
DISCID=ae07800d
DTITLE=RONNIE KENNEDY - THOSE WERE THE DAYS
DYEAR=1900
DGENRE=Country
TTITLE0=Those Were The Days
TTITLE1=Dingle Regatta
TTITLE2=Irish Medley-A.Dublin In The Rare Ould Time-B.Take Me Home To Maryo -C.Galway Bay
TTITLE3=Whistying Rufus
TTITLE4=Alpine Slopes/Jacqueline Waltz
TTITLE5=Country Favourites Medley/A Fraulein/B Red River Valley/C The Black Hill Of Dakota
TTITLE6=Looking For A Partner
TTITLE7=Lara's Theme
TTITLE8=Scottish Medley/aNorthern Lights Of Old Aberdeen /B TheRoad And Miles To Dundee - C I Belong To Glasgow - d Loch Lomond
TTITLE9=The Birdie Song
TTITLE10=Cuckoo Waltz
TTITLE11=Blue Bell Polka
TTITLE12=Edelweiss/Those Were The Days
EXTD=
EXTT0=
EXTT1=
EXTT2=
EXTT3=
EXTT4=
EXTT5=
EXTT6=
EXTT7=
EXTT8=
EXTT9=
EXTT10=
EXTT11=
EXTT12=
PLAYORDER=
